<svg width="32" height="33" viewBox="0 0 32 33" fill="none" xmlns="http://www.w3.org/2000/svg">
<circle cx="16" cy="16.5" r="15.5" fill="white" stroke="#5A6872"/>
<path d="M18.423 14.1171C18.7418 14.4356 18.9947 14.8137 19.1672 15.2299C19.3398 15.6461 19.4286 16.0923 19.4286 16.5429C19.4286 16.9934 19.3398 17.4396 19.1672 17.8558C18.9947 18.272 18.7418 18.6501 18.423 18.9686M13.5773 18.9629C13.2585 18.6444 13.0057 18.2663 12.8331 17.8501C12.6606 17.4339 12.5718 16.9877 12.5718 16.5371C12.5718 16.0866 12.6606 15.6404 12.8331 15.2242C13.0057 14.808 13.2585 14.4299 13.5773 14.1114M20.0402 12.5C21.1114 13.5716 21.7132 15.0248 21.7132 16.54C21.7132 18.0552 21.1114 19.5084 20.0402 20.58M11.9602 20.58C10.8889 19.5084 10.2871 18.0552 10.2871 16.54C10.2871 15.0248 10.8889 13.5716 11.9602 12.5M17.143 16.54C17.143 17.1712 16.6314 17.6829 16.0002 17.6829C15.369 17.6829 14.8573 17.1712 14.8573 16.54C14.8573 15.9088 15.369 15.3971 16.0002 15.3971C16.6314 15.3971 17.143 15.9088 17.143 16.54Z" stroke="#5A6872" stroke-linecap="round" stroke-linejoin="round"/>
</svg>
