<svg width="32" height="33" viewBox="0 0 32 33" fill="none" xmlns="http://www.w3.org/2000/svg">
<circle cx="16" cy="16.5" r="15.5" fill="white" stroke="url(#paint0_linear_3861_5136)"/>
<path d="M18.423 14.1171C18.7418 14.4355 18.9947 14.8136 19.1672 15.2299C19.3398 15.6461 19.4286 16.0922 19.4286 16.5428C19.4286 16.9934 19.3398 17.4395 19.1672 17.8557C18.9947 18.272 18.7418 18.6501 18.423 18.9685M13.5773 18.9628C13.2585 18.6444 13.0057 18.2662 12.8331 17.85C12.6606 17.4338 12.5718 16.9876 12.5718 16.5371C12.5718 16.0865 12.6606 15.6404 12.8331 15.2241C13.0057 14.8079 13.2585 14.4298 13.5773 14.1114M20.0402 12.4999C21.1114 13.5715 21.7132 15.0247 21.7132 16.5399C21.7132 18.0552 21.1114 19.5084 20.0402 20.5799M11.9602 20.5799C10.8889 19.5084 10.2871 18.0552 10.2871 16.5399C10.2871 15.0247 10.8889 13.5715 11.9602 12.4999M17.143 16.5399C17.143 17.1711 16.6314 17.6828 16.0002 17.6828C15.369 17.6828 14.8573 17.1711 14.8573 16.5399C14.8573 15.9088 15.369 15.3971 16.0002 15.3971C16.6314 15.3971 17.143 15.9088 17.143 16.5399Z" stroke="url(#paint1_linear_3861_5136)" stroke-linecap="round" stroke-linejoin="round"/>
<defs>
<linearGradient id="paint0_linear_3861_5136" x1="2.92643e-08" y1="16.5" x2="33.5039" y2="13.7584" gradientUnits="userSpaceOnUse">
<stop stop-color="#75CC7E"/>
<stop offset="1" stop-color="#00C9FF"/>
</linearGradient>
<linearGradient id="paint1_linear_3861_5136" x1="10.2871" y1="16.5399" x2="22.1712" y2="15.1648" gradientUnits="userSpaceOnUse">
<stop stop-color="#75CC7E"/>
<stop offset="1" stop-color="#00C9FF"/>
</linearGradient>
</defs>
</svg>
