<svg width="24" height="24" viewBox="0 0 24 24" fill="none" xmlns="http://www.w3.org/2000/svg">
<mask id="path-1-inside-1_3121_52434" fill="white">
<path d="M12.0001 20.5706C16.734 20.5706 20.5716 16.733 20.5716 11.9992C20.5716 7.26529 16.734 3.42773 12.0001 3.42773C7.26627 3.42773 3.42871 7.26529 3.42871 11.9992C3.42871 16.733 7.26627 20.5706 12.0001 20.5706Z"/>
<path d="M12.8573 8.57059C12.8573 9.04398 12.4735 9.42773 12.0001 9.42773C11.5268 9.42773 11.143 9.04398 11.143 8.57059C11.143 8.0972 11.5268 7.71345 12.0001 7.71345C12.4735 7.71345 12.8573 8.0972 12.8573 8.57059Z"/>
</mask>
<path d="M11.5001 15.4277C11.5001 15.7039 11.724 15.9277 12.0001 15.9277C12.2763 15.9277 12.5001 15.7039 12.5001 15.4277H11.5001ZM12.5001 11.9992C12.5001 11.723 12.2763 11.4992 12.0001 11.4992C11.724 11.4992 11.5001 11.723 11.5001 11.9992H12.5001ZM12.5001 15.4277V11.9992H11.5001V15.4277H12.5001ZM19.5716 11.9992C19.5716 16.1807 16.1817 19.5706 12.0001 19.5706V21.5706C17.2863 21.5706 21.5716 17.2853 21.5716 11.9992H19.5716ZM12.0001 19.5706C7.81855 19.5706 4.42871 16.1807 4.42871 11.9992H2.42871C2.42871 17.2853 6.71399 21.5706 12.0001 21.5706V19.5706ZM4.42871 11.9992C4.42871 7.81758 7.81855 4.42773 12.0001 4.42773V2.42773C6.71399 2.42773 2.42871 6.71301 2.42871 11.9992H4.42871ZM12.0001 4.42773C16.1817 4.42773 19.5716 7.81758 19.5716 11.9992H21.5716C21.5716 6.71301 17.2863 2.42773 12.0001 2.42773V4.42773ZM11.8573 8.57059C11.8573 8.49169 11.9212 8.42773 12.0001 8.42773V10.4277C13.0258 10.4277 13.8573 9.59626 13.8573 8.57059H11.8573ZM12.0001 8.42773C12.079 8.42773 12.143 8.49169 12.143 8.57059H10.143C10.143 9.59626 10.9745 10.4277 12.0001 10.4277V8.42773ZM12.143 8.57059C12.143 8.64949 12.079 8.71345 12.0001 8.71345V6.71345C10.9745 6.71345 10.143 7.54492 10.143 8.57059H12.143ZM12.0001 8.71345C11.9212 8.71345 11.8573 8.64949 11.8573 8.57059H13.8573C13.8573 7.54492 13.0258 6.71345 12.0001 6.71345V8.71345Z" fill="#5A6872" mask="url(#path-1-inside-1_3121_52434)"/>
</svg>
