<svg width="25" height="24" viewBox="0 0 25 24" fill="none" xmlns="http://www.w3.org/2000/svg">
<path d="M3.92871 5.13479V10.2776M3.92871 10.2776H9.07157M3.92871 10.2776L7.90585 6.54051C9.08949 5.35887 10.6251 4.59391 12.2813 4.36089C13.9375 4.12787 15.6245 4.43942 17.0883 5.24859C18.552 6.05776 19.7131 7.32071 20.3967 8.84716C21.0802 10.3736 21.2492 12.0809 20.878 13.7117C20.5069 15.3425 19.6159 16.8085 18.3391 17.8889C17.0623 18.9692 15.4691 19.6054 13.7993 19.7015C12.1296 19.7976 10.4738 19.3484 9.08156 18.4217C7.68928 17.4949 6.63591 16.1408 6.08014 14.5634" stroke="#0B2338" stroke-linecap="round" stroke-linejoin="round"/>
<path d="M13.4188 6.85693V16.5099M15.6126 8.61203H12.3218C11.9145 8.61203 11.5239 8.77382 11.2359 9.06182C10.9479 9.34982 10.7861 9.74044 10.7861 10.1477C10.7861 10.555 10.9479 10.9456 11.2359 11.2336C11.5239 11.5216 11.9145 11.6834 12.3218 11.6834H14.5157C14.923 11.6834 15.3136 11.8452 15.6016 12.1332C15.8896 12.4212 16.0514 12.8118 16.0514 13.2191C16.0514 13.6264 15.8896 14.0171 15.6016 14.3051C15.3136 14.5931 14.923 14.7548 14.5157 14.7548H10.7861" stroke="#0B2338" stroke-linecap="round" stroke-linejoin="round"/>
</svg>
