<svg width="48" height="49" viewBox="0 0 48 49" fill="none" xmlns="http://www.w3.org/2000/svg">
<circle cx="24" cy="24.5" r="23" fill="white" stroke="url(#paint0_linear_3194_37353)" stroke-width="2"/>
<path d="M22.587 14.5H31C32.6569 14.5 34 15.8431 34 17.5V25.4565M18.25 14.5H16C14.3431 14.5 13 15.8431 13 17.5V25.4565M34 29.337V32.5C34 34.1569 32.6569 35.5 31 35.5H28.75M13 29.337V32.5C13 34.1569 14.3431 35.5 16 35.5H24.413" stroke="url(#paint1_linear_3194_37353)" stroke-width="2"/>
<path d="M20.2695 19.3461H27.2695V26.3461" stroke="url(#paint2_linear_3194_37353)" stroke-width="2"/>
<defs>
<linearGradient id="paint0_linear_3194_37353" x1="4.38965e-08" y1="24.5" x2="50.2558" y2="20.3876" gradientUnits="userSpaceOnUse">
<stop stop-color="#75CC7E"/>
<stop offset="1" stop-color="#00C9FF"/>
</linearGradient>
<linearGradient id="paint1_linear_3194_37353" x1="13" y1="25" x2="34.9869" y2="23.2008" gradientUnits="userSpaceOnUse">
<stop stop-color="#75CC7E"/>
<stop offset="1" stop-color="#00C9FF"/>
</linearGradient>
<linearGradient id="paint2_linear_3194_37353" x1="20.2695" y1="22.8461" x2="27.5985" y2="22.2463" gradientUnits="userSpaceOnUse">
<stop stop-color="#75CC7E"/>
<stop offset="1" stop-color="#00C9FF"/>
</linearGradient>
</defs>
</svg>
