<svg width="24" height="25" viewBox="0 0 24 25" fill="none" xmlns="http://www.w3.org/2000/svg">
<path d="M13.818 14.3171C13.5826 14.5698 13.2987 14.7724 12.9833 14.9129C12.6678 15.0535 12.3273 15.1291 11.9821 15.1352C11.6368 15.1412 11.2938 15.0777 10.9736 14.9484C10.6535 14.8191 10.3626 14.6266 10.1184 14.3824C9.87424 14.1382 9.68175 13.8474 9.55242 13.5272C9.42309 13.207 9.35957 12.864 9.36567 12.5188C9.37176 12.1735 9.44733 11.833 9.58787 11.5176C9.72842 11.2021 9.93105 10.9183 10.1837 10.6828M2.57227 3.07141L21.4294 21.9286M17.0923 17.5914C15.6271 18.7083 13.8429 19.327 12.0008 19.3571C6.00084 19.3571 2.57227 12.5 2.57227 12.5C3.63846 10.513 5.11724 8.77708 6.90941 7.40855L17.0923 17.5914ZM10.2008 5.84855C10.7908 5.71045 11.3949 5.64142 12.0008 5.64284C18.0008 5.64284 21.4294 12.5 21.4294 12.5C20.9091 13.4734 20.2886 14.3898 19.578 15.2343L10.2008 5.84855Z" stroke="#939997" stroke-linecap="round" stroke-linejoin="round"/>
</svg>
