<svg width="80" height="80" viewBox="0 0 80 80" fill="none" xmlns="http://www.w3.org/2000/svg">
<circle opacity="0.3" cx="40" cy="40" r="40" fill="url(#paint0_linear_2171_19135)"/>
<mask id="path-2-inside-1_2171_19135" fill="white">
<path d="M39.9998 57.1431C49.4675 57.1431 57.1426 49.468 57.1426 40.0003C57.1426 30.5325 49.4675 22.8574 39.9998 22.8574C30.5321 22.8574 22.8569 30.5325 22.8569 40.0003C22.8569 49.468 30.5321 57.1431 39.9998 57.1431Z"/>
<path d="M41.7141 33.1431C41.7141 34.0899 40.9466 34.8574 39.9998 34.8574C39.053 34.8574 38.2855 34.0899 38.2855 33.1431C38.2855 32.1964 39.053 31.4289 39.9998 31.4289C40.9466 31.4289 41.7141 32.1964 41.7141 33.1431Z"/>
</mask>
<path d="M38.9998 46.8574C38.9998 47.4097 39.4475 47.8574 39.9998 47.8574C40.5521 47.8574 40.9998 47.4097 40.9998 46.8574H38.9998ZM40.9998 40.0003C40.9998 39.448 40.5521 39.0003 39.9998 39.0003C39.4475 39.0003 38.9998 39.448 38.9998 40.0003H40.9998ZM40.9998 46.8574V40.0003H38.9998V46.8574H40.9998ZM55.1426 40.0003C55.1426 48.3634 48.363 55.1431 39.9998 55.1431V59.1431C50.5721 59.1431 59.1426 50.5726 59.1426 40.0003H55.1426ZM39.9998 55.1431C31.6366 55.1431 24.8569 48.3634 24.8569 40.0003H20.8569C20.8569 50.5726 29.4275 59.1431 39.9998 59.1431V55.1431ZM24.8569 40.0003C24.8569 31.6371 31.6366 24.8574 39.9998 24.8574V20.8574C29.4275 20.8574 20.8569 29.428 20.8569 40.0003H24.8569ZM39.9998 24.8574C48.363 24.8574 55.1426 31.6371 55.1426 40.0003H59.1426C59.1426 29.428 50.5721 20.8574 39.9998 20.8574V24.8574ZM39.7141 33.1431C39.7141 32.9853 39.842 32.8574 39.9998 32.8574V36.8574C42.0511 36.8574 43.7141 35.1945 43.7141 33.1431H39.7141ZM39.9998 32.8574C40.1576 32.8574 40.2855 32.9853 40.2855 33.1431H36.2855C36.2855 35.1945 37.9484 36.8574 39.9998 36.8574V32.8574ZM40.2855 33.1431C40.2855 33.3009 40.1576 33.4289 39.9998 33.4289V29.4289C37.9484 29.4289 36.2855 31.0918 36.2855 33.1431H40.2855ZM39.9998 33.4289C39.842 33.4289 39.7141 33.3009 39.7141 33.1431H43.7141C43.7141 31.0918 42.0511 29.4289 39.9998 29.4289V33.4289Z" fill="#00322E" mask="url(#path-2-inside-1_2171_19135)"/>
<defs>
<linearGradient id="paint0_linear_2171_19135" x1="7.31608e-08" y1="40" x2="83.7597" y2="33.146" gradientUnits="userSpaceOnUse">
<stop stop-color="#92FE9D"/>
<stop offset="1" stop-color="#00C9FF"/>
</linearGradient>
</defs>
</svg>
