<svg width="24" height="24" viewBox="0 0 24 24" fill="none" xmlns="http://www.w3.org/2000/svg">
<path d="M6.00042 19.7142H18.0004C18.9472 19.7142 19.7147 18.9467 19.7147 17.9999V5.99993C19.7147 5.05316 18.9472 4.28564 18.0004 4.28564H6.00042C5.05364 4.28564 4.28613 5.05316 4.28613 5.99993V17.9999C4.28613 18.9467 5.05364 19.7142 6.00042 19.7142ZM6.00042 19.7142L15.429 10.2856L19.7147 14.5714M10.2861 8.99993C10.2861 9.71001 9.7105 10.2856 9.00042 10.2856C8.29034 10.2856 7.7147 9.71001 7.7147 8.99993C7.7147 8.28985 8.29034 7.71422 9.00042 7.71422C9.7105 7.71422 10.2861 8.28985 10.2861 8.99993Z" stroke="white" stroke-linecap="round" stroke-linejoin="round"/>
</svg>
