<svg width="24" height="24" viewBox="0 0 24 24" fill="none" xmlns="http://www.w3.org/2000/svg">
<path d="M4.28613 6.85728H6.00042M6.00042 6.85728H19.7147M6.00042 6.85728V18.8573C6.00042 19.3119 6.18103 19.748 6.50252 20.0695C6.82401 20.391 7.26005 20.5716 7.7147 20.5716H16.2861C16.7408 20.5716 17.1768 20.391 17.4983 20.0695C17.8198 19.748 18.0004 19.3119 18.0004 18.8573V6.85728H6.00042ZM8.57185 6.85728V5.143C8.57185 4.68834 8.75246 4.2523 9.07395 3.93081C9.39544 3.60932 9.83148 3.42871 10.2861 3.42871H13.7147C14.1694 3.42871 14.6054 3.60932 14.9269 3.93081C15.2484 4.2523 15.429 4.68834 15.429 5.143V6.85728M10.2861 11.143V16.2859M13.7147 11.143V16.2859" stroke="#4A5570" stroke-linecap="round" stroke-linejoin="round"/>
</svg>
