<svg width="14" height="15" viewBox="0 0 14 15" fill="none" xmlns="http://www.w3.org/2000/svg">
<path d="M11.1351 4.33522C11.0903 4.16708 10.9991 3.98802 10.9318 3.83122C10.1255 1.89362 8.3639 1.19922 6.9415 1.19922C5.03736 1.19922 2.94016 2.47602 2.66016 5.10788V5.64562C2.66016 5.66802 2.66786 5.86962 2.67892 5.97042C2.83586 7.22468 3.82552 8.55762 4.56472 9.81188C5.35992 11.1557 6.18508 12.4776 7.00282 13.7989C7.50682 12.9367 8.00914 12.0631 8.5018 11.2231C8.63606 10.9765 8.79174 10.7301 8.92614 10.4949C9.01574 10.3383 9.18682 10.1816 9.26508 10.0359C10.0601 8.5803 11.3402 7.11282 11.3402 5.66802V5.07442C11.3402 4.91776 11.146 4.36896 11.1351 4.33522ZM6.97636 7.03442C6.41664 7.03442 5.804 6.75456 5.5016 5.98162C5.45652 5.85856 5.46016 5.61202 5.46016 5.58948V5.24228C5.46016 4.25696 6.2968 3.80882 7.02466 3.80882C7.92066 3.80882 8.6138 4.52576 8.6138 5.42176C8.6138 6.31776 7.87236 7.03442 6.97636 7.03442Z" fill="#5A6872"/>
</svg>
